<svg width="11" height="20" viewBox="0 0 11 20" fill="none" xmlns="http://www.w3.org/2000/svg">
<path d="M10.5982 13.5627C10.5285 13.5413 8.87394 13.0317 7.57961 13.0317C7.14022 13.0317 6.79433 13.0887 6.52331 13.2063C6.11722 13.3827 5.80494 13.623 5.56356 13.891C5.61244 13.368 5.64972 12.844 5.66714 12.3197C5.72947 12.0863 5.76125 11.7973 5.67814 11.4913C5.67916 11.1058 5.67132 10.7204 5.65461 10.3353C5.89967 10.4157 6.45731 10.5723 7.09958 10.5723C7.81703 10.5723 8.42203 10.3803 8.89839 10.0013C9.83492 9.25633 9.78267 7.27933 9.7735 7.056L9.76006 6.72867L9.43158 6.745C9.13581 6.76 6.512 6.911 5.62131 7.61933C5.54522 7.68 5.47769 7.74267 5.41383 7.807C5.39206 7.65404 5.36925 7.50126 5.34539 7.34867C5.45447 7.18 5.55256 6.96267 5.56814 6.69967C5.59075 6.32867 5.43889 5.97167 5.1315 5.637C5.302 5.696 5.74811 5.83033 6.26817 5.83033C6.82428 5.83033 7.29422 5.67933 7.66547 5.381C8.39667 4.793 8.35572 3.26267 8.34839 3.09L8.33525 2.76233L8.00708 2.77867C7.7825 2.79 5.79394 2.90467 5.10675 3.456C4.87758 3.64033 4.72389 3.84967 4.63436 4.07767C4.56368 3.83575 4.48983 3.59495 4.41283 3.35533C4.48983 3.33067 4.93044 3.17133 5.14189 2.74567C5.23539 2.55767 5.31483 2.246 5.16358 1.82833C4.92922 1.18133 3.73144 0.345333 3.49372 0.184333L3.22239 0L3.04028 0.273C2.96419 0.387333 2.30419 1.41033 2.56269 2.125C2.91347 3.09367 4.09506 3.34 4.23653 3.36633C4.39603 3.988 4.53903 4.613 4.65269 5.24267L4.65544 5.26033C3.75222 4.73033 2.15508 4.361 1.94608 4.31433L1.60539 4.238L1.55314 4.58233C1.52656 4.75867 1.31328 6.32667 2.05058 7.06233C2.69194 7.703 3.58661 7.83733 4.22431 7.83733C4.59892 7.83733 4.862 7.78967 4.873 7.788L4.95214 7.77333L4.97628 7.75433C4.99431 7.96433 5.00836 8.174 5.02211 8.38367C4.96497 8.52433 4.92769 8.67033 4.91456 8.82267C4.88706 9.14667 4.96894 9.438 5.07222 9.671C5.07436 9.82167 5.08292 9.97233 5.08231 10.123C5.082 10.294 5.07467 10.4647 5.06886 10.6357C4.92787 10.5312 4.77796 10.4418 4.62122 10.3687C4.18856 10.1653 3.47844 10.0663 2.45056 10.0663C1.38906 10.0663 0.394472 10.175 0.352611 10.1797L0 10.2187L0.0690555 10.566C0.0858611 10.652 0.500805 12.6807 1.69156 13.24C2.10161 13.4333 2.56269 13.531 3.06197 13.531C3.79561 13.531 4.46386 13.3213 4.88339 13.1527C4.609 15.373 4.04556 17.5487 3.18358 19.5947L4.23775 20C4.65063 18.8259 4.97629 17.6174 5.21156 16.3863C5.56875 16.6943 6.23089 17.1387 7.08492 17.1387C7.43627 17.1373 7.78418 17.063 8.11005 16.9197C9.29958 16.4037 10.7186 14.1403 10.7782 14.0443L11 13.6877L10.5982 13.5627Z" fill="currentColor"/>
</svg>
