<svg width="11" height="18" viewBox="0 0 11 18" fill="none" xmlns="http://www.w3.org/2000/svg">
<path fill-rule="evenodd" clip-rule="evenodd" d="M1.07486 8.07005C0.829896 8.3152 0.692282 8.64765 0.692282 8.99429C0.692282 9.34094 0.829896 9.67339 1.07486 9.91854L8.4668 17.3138C8.58734 17.4387 8.73153 17.5382 8.89095 17.6068C9.05037 17.6753 9.22183 17.7113 9.39534 17.7128C9.56884 17.7143 9.7409 17.6813 9.90149 17.6155C10.0621 17.5498 10.208 17.4527 10.3307 17.33C10.4533 17.2073 10.5504 17.0613 10.6161 16.9006C10.6818 16.74 10.7148 16.5678 10.7133 16.3943C10.7118 16.2207 10.6758 16.0491 10.6073 15.8896C10.5388 15.7302 10.4393 15.5859 10.3145 15.4653L3.84635 8.99429L10.3145 2.52328C10.5525 2.27673 10.6842 1.94651 10.6812 1.60374C10.6782 1.26098 10.5408 0.9331 10.2985 0.69072C10.0563 0.448339 9.72854 0.310854 9.38593 0.307877C9.04332 0.304897 8.71325 0.436663 8.4668 0.674793L1.07486 8.07005Z" fill="#EEEEEE"/>
</svg>
