<svg width="11" height="18" viewBox="0 0 11 18" fill="none" xmlns="http://www.w3.org/2000/svg">
<path fill-rule="evenodd" clip-rule="evenodd" d="M9.92514 8.07005C10.1701 8.3152 10.3077 8.64765 10.3077 8.99429C10.3077 9.34094 10.1701 9.67339 9.92514 9.91854L2.5332 17.3138C2.41266 17.4387 2.26847 17.5382 2.10905 17.6068C1.94963 17.6753 1.77817 17.7113 1.60466 17.7128C1.43116 17.7143 1.2591 17.6813 1.09851 17.6155C0.937925 17.5498 0.79203 17.4527 0.669341 17.33C0.546653 17.2073 0.449627 17.0613 0.383925 16.9006C0.318224 16.74 0.285163 16.5678 0.28667 16.3943C0.288178 16.2207 0.324225 16.0491 0.392707 15.8896C0.461189 15.7302 0.560735 15.5859 0.685537 15.4653L7.15365 8.99429L0.685537 2.52328C0.447513 2.27673 0.315806 1.94651 0.318783 1.60374C0.32176 1.26098 0.459183 0.9331 0.701454 0.69072C0.943725 0.448339 1.27146 0.310854 1.61407 0.307877C1.95668 0.304897 2.28675 0.436663 2.5332 0.674793L9.92514 8.07005Z" fill="#EEEEEE"/>
</svg>
